/* XPM */
static char *b756cedaa1cc40f4dcc0e12bf6c75fb9636DQwIRH1IFpsbf[] = {
/* columns rows colors chars-per-pixel */
"50 50 238 2 ",
"   c #010302",
".  c #02040A",
"X  c #0A050A",
"o  c #060809",
"O  c #12080D",
"+  c #010A12",
"@  c #080814",
"#  c #120815",
"$  c #09141A",
"%  c #16161B",
"&  c #1A181A",
"*  c #03120F",
"=  c #201A1A",
"-  c #24241C",
";  c #091623",
":  c #191A25",
">  c #111C30",
",  c #251C2D",
"<  c #1B2A2F",
"1  c #1F2528",
"2  c #1B2B32",
"3  c #142A31",
"4  c #272528",
"5  c #2A2E35",
"6  c #35363A",
"7  c #383737",
"8  c #2A2F30",
"9  c #403637",
"0  c #2A3947",
"q  c #483A46",
"w  c #7C1D7A",
"e  c #742678",
"r  c #6A2274",
"t  c #3C4548",
"y  c #2C4C51",
"u  c #474748",
"i  c #51494B",
"p  c #565856",
"a  c #544D55",
"s  c #555562",
"d  c #7B5979",
"f  c #655967",
"g  c #596267",
"h  c #59737A",
"j  c #48607C",
"k  c #756B6C",
"l  c #797279",
"z  c #6E6A71",
"x  c #74388A",
"c  c #7E2D94",
"v  c #346E84",
"b  c #557E92",
"n  c #787D86",
"m  c #766F82",
"M  c #981C92",
"N  c #861C81",
"B  c #A51C9D",
"V  c #85288A",
"C  c #992799",
"Z  c #973798",
"A  c #A7289B",
"S  c #AA359E",
"D  c #9B35A5",
"F  c #A638A7",
"G  c #B233AD",
"H  c #B62AB3",
"J  c #B737B3",
"K  c #AC2DAC",
"L  c #C334B9",
"P  c #D036BE",
"I  c #CA29B9",
"U  c #884A98",
"Y  c #9F4390",
"T  c #A34D94",
"R  c #A7779D",
"E  c #A24DB3",
"W  c #B554B1",
"Q  c #B469B3",
"!  c #AC72AF",
"~  c #C145BA",
"^  c #C55FB5",
"/  c #C668B4",
"(  c #BE2BC3",
")  c #BE35C0",
"_  c #C82CC0",
"`  c #CA36C5",
"'  c #D133C5",
"]  c #D63CC8",
"[  c #CD3CD6",
"{  c #D83DD7",
"}  c #DC3BE2",
"|  c #D836E1",
" . c #B76FD3",
".. c #D946D7",
"X. c #D452CD",
"o. c #E347D9",
"O. c #CB67C4",
"+. c #DD6ADB",
"@. c #C374C3",
"#. c #E262D1",
"$. c #DE42E1",
"%. c #E547E6",
"&. c #E846F2",
"*. c #EB6CE1",
"=. c #4A849A",
"-. c #7B8489",
";. c #738B94",
":. c #6B9898",
">. c #5F9FB8",
",. c #6B9EB6",
"<. c #759AA0",
"1. c #4CA5BA",
"2. c #59A3B7",
"3. c #66ABBB",
"4. c #3BABD9",
"5. c #3DB4EC",
"6. c #529ED1",
"7. c #49AACB",
"8. c #49B7D9",
"9. c #52B6CD",
"0. c #64A9C8",
"q. c #6ABAD3",
"w. c #76B5D2",
"e. c #72B3C9",
"r. c #46BCE5",
"t. c #5BB7E2",
"y. c #42AFF0",
"u. c #65B7EA",
"i. c #4AC1D7",
"p. c #6DC1DA",
"a. c #71C4D4",
"s. c #4FC7E9",
"d. c #68C2E4",
"f. c #71C5FF",
"g. c #6DCEF3",
"h. c #848786",
"j. c #918A99",
"k. c #918C98",
"l. c #97A99D",
"z. c #928FA4",
"x. c #81A9AC",
"c. c #97A5AC",
"v. c #89ADB4",
"b. c #AAA9A7",
"n. c #B7A7B7",
"m. c #B8B2B8",
"M. c #B0ABAE",
"N. c #AE8CB1",
"B. c #C286B9",
"V. c #AE8DCD",
"C. c #87B8C9",
"Z. c #8FA6D2",
"A. c #A4BED7",
"S. c #999EE5",
"D. c #89BEFF",
"F. c #A0A4ED",
"G. c #D583CD",
"H. c #C496DE",
"J. c #DC96D9",
"K. c #C5A1D8",
"L. c #CFACD3",
"P. c #D89FE3",
"I. c #F8B7FB",
"U. c #E9B0EE",
"Y. c #DCA0E8",
"T. c #94C8D3",
"R. c #A8C7D8",
"E. c #B1C7D0",
"W. c #85CCE9",
"Q. c #8ED4F0",
"!. c #ABD9E7",
"~. c #B7DAE3",
"^. c #AECFF1",
"/. c #B3E2E7",
"(. c #ADE9FC",
"). c #B8EAFD",
"_. c #B7FAFF",
"`. c #A6F1FF",
"'. c #C5C7CA",
"]. c #D7D7D8",
"[. c #D1C9D4",
"{. c #E1C3DF",
"}. c #D7D0F5",
"|. c #E8D7E3",
" X c #F3D5EC",
".X c #FACCFA",
"XX c #FFD4FE",
"oX c #FEDAFF",
"OX c #F8D4F8",
"+X c #E3CBF3",
"@X c #D9E4E8",
"#X c #C7EAFD",
"$X c #D9EAF8",
"%X c #CCFFFF",
"&X c #C6F8FE",
"*X c #DBF3FF",
"=X c #D4FEFF",
"-X c #DCFEFF",
";X c #D6F8F9",
":X c #D7F0ED",
">X c #EBEBE5",
",X c #EBEDEC",
"<X c #E6E5E7",
"1X c #F2EDEB",
"2X c #ECF6EC",
"3X c #ECFAED",
"4X c #E5F6E8",
"5X c #F3FDE4",
"6X c #F4F3ED",
"7X c #FDF4ED",
"8X c #F4FCED",
"9X c #F8FCEE",
"0X c #FFF9E6",
"qX c #EFECF2",
"wX c #E6EAF8",
"eX c #F2EFF3",
"rX c #FAEEF1",
"tX c #FBE2FF",
"yX c #FDEFFC",
"uX c #F5E8F8",
"iX c #EDF3F4",
"pX c #EDFDF4",
"aX c #E3F4FF",
"sX c #ECF5FC",
"dX c #E4FEFE",
"fX c #ECFDFC",
"gX c #E5F7F2",
"hX c #F5F4F4",
"jX c #FCF5F5",
"kX c #F5FAF5",
"lX c #FAF9F5",
"zX c #F5F5FC",
"xX c #FBF6FA",
"cX c #F5FAFA",
"vX c #F8F8F8",
"bX c #FEFEFA",
"nX c #FEFDFF",
"mX c #FAFAFA",
/* pixels */
"vXvXvXvXvXvXvXvXvXvXvXvXvXvXvXvXvXlX9X8XkXkX5X9XyXrXmXpXpXkXjX7XlXlXmXvXvXvXvXvXvXhXvXvXvXvXvXvXvXvX",
"vXvXvXvXvXvXvXvXvXvXvXvXvXvXvXvXvXvX8X9XkXkX8XkXyXyXmXpXcXkXjXlXhXvXxXvXvXvXvXvXvXvXvXvXvXvXvXvXvXvX",
"vXvXvXvXvXvXvXvXvXvXvXvXvXvXvXvXhXvXkXkXcXkX8XkXyXxXzXkXcXvXlXlXkXvXvXvXvXvXvXvXvXvXvXvXvXvXvXvXvXvX",
"vXvXvXvXvXvXvXvXvXvXvXvXhXvXvXvXmXvXlXkXcXvXpXvXuXnXiXcXzXxXmXjXvXvXvXvXvXvXvXvXvXvXvXvXvXvXvXvXvXvX",
"vXvXvXvXvXvXvXvXvXvXvXvXvXvXvXvXxXzXvXmXzXcXcXfXfXcXzXzXmXzXzXvXvXvXvXvXvXvXvXvXvXvXvXvXvXvXvXvXvXvX",
"vXvXvXvXvXvXvXvXvXvXvXvXvXvXvXvXxXmXvXzXcXcXvXfXdX*XcXzXxXzXzXcXvXvXvXvXvXvXvXvXvXvXvXvXvXvXvXvXvXvX",
"vXvXvXvXvXvXvXvXvXvXvXvXvXvXvXvXzXmXxXzXcXcXcXfX~.R.cXzXxXzXcXcXvXvXvXvXvXvXvXvXvXvXvXvXvXvXvXvXvXvX",
"vXvXvXvXvXvXvXvXvXvXvXvXvXvXvXvXmXzXvXvXcXfXcXfXv.x.cXxXxXmXcXpXvXvXvXvXvXvXvXvXvXvXvXvXvXvXvXvXvXvX",
"vXvXvXvXvXvXvXvXvXvXvXvXvXvXvXvXnXvX6XvXcXsXbXz x.<.g nXxXqXcXpXkXvXvXvXvXvXvXmXvXvXvXvXvXvXvXvXvXvX",
"vXvXvXvXvXvXvXvXvXvXvXvXvXvXvXvXvXvXbX6XcXbX'.  y y @ '.nXxXpXcXvXvXvXvXvXvXvXvXvXvXvXvXvXvXvXvXvXvX",
"vXvXvXvXvXvXvXvXvXvXvXvXvXvXvXvXbX6XkXkX<XbXp O 3 ; $ i nX,XkX5XvXvXvXvXvXvXvXvXvXvXvXvXvXvXvXvXvXvX",
"vXvXvXvXvXvXvXvXvXvXvXvXvXvXvXvXvXvX6XkXbXM.  - $ % 4 X M.nXlXvXvXvXvXvXvXvXkXhXvXvXvXvXvXvXvXvXvXvX",
"vXvXvXvXvXvXvXhXvXvXvXvXvXvXvXvXhXbX6X>XnX8 = X a s X & 0 nX>XbXlXvXvXvXvXvXvXvXvXvXvXvXvXvXvXvXvXvX",
"vXvXvXvXvXvXvXvXvXvXvXvXvXvXvXvXvX6X6XbXj.X 4 & U.{.# % O k.bX1XhXhXvXmXvXvXvXvXvXvXvXvXvXvXvXvXvXvX",
"vXhXvXvXvXvXvXvXvXvXvXvXvXvXvXvXvX6XbX<X4 = X l OXOXm o : 4 1XjXlXhXvXvXbXvXmXvXvXvXvXvXvXvXvXvXvXvX",
"vXhXmXvXvXvXvXvXvXvXvXvXvXvXvXvXvXhXmXz & # 4 uX! R OX4 : O k mXhXvXvXcXcXmXvXvXhXvXvXvXvXvXmXzXvXvX",
"jXxXvXxXvXvXcXvXhXhXnXhXkXmXpXlX6XbX'.; <   l.{.W F I.N.X - 9  XnXeXmXcXgXbXnXjXjXjX7XkXcXcXvXxXvXvX",
"xXxXjXvXvXvXvXvXnXhXxXhXkXmXvXmX2XkXm ; $ u <Xd +.K ~ .Xq   p l xXhXsXfXfXcXmXjXjXjXlXkXcXcXzXmXvXvX",
"jXxXhXvXcXcXcXvXvX1XmXnXhXhXiX4XdX:Xn # = '.R W X.] A J.{.  - i m.nXgXcXcXcXvXxXjXjXkXkXcXcXxXxXzXvX",
"xXjXvXvXvXcXvXvXvXxXmXvX6XbXbXfX-XR.g @ k L.Y #.] ' ' F oXd   i k 1XvXhXcXcXvXxXjXlXlXkXcXvXxXxXmXvX",
"jXmXxXvXkXcXvXkXhXnXhXeXnXvXhXgX/.:.$ :  XT +....._ ` K /  X: % i b.lXhX,XnXxXhXxXjXvXcXcXvXlXxXvXvX",
"mXjXvXvXvXcXvXvXhXvXjXmXnXiXqXdXT.y   j.XX/ ..%...` ` ) E I.j.  4 7 1XbX,XxXxXxXxXxXcXcXkXvXhXjXxXvX",
"vXvXvXkXcXkXvXvXxXxXhXjXiXmXbX@X;.$ 0 tXG.*.$.| ..H ..` G O..Xq O X h.lXvXhXxXnXxXmXzXcXcXvXlXjXvXvX",
"zXvXvXcXvXvXvXvXmXhXjXnXhXcX].g < . K.U.+...| &.....( ( ` #.U.n.O = O ].mXlXjXhXmXzXzXcXvXkX9XlXvXvX",
"vXzXvXcXcXcXvXvXvXeXnXhXeXnX-.1 6 d .XO...} } { ..) I ' P ~ / XXf 6 6 l nXkXmXhXbXcXzXzXvXlX7XlXhXvX",
"vXmXvXcXcXkXvXhXxXnXxXeXzXbX'.].'.xXG.J &.&.{ %.[ ` I I ' ~ Y B.nXE.[.].bX1XlXbXzXzXcXmXvXlXlX9XvXvX",
"zXzXmXvXvXvXkXkX6XhXnXnXbXsX-.  -.xXY.E [ } ....%._ P L K C e L.cXh + h.nX1XjXlXcXcXxXzXhXvXkXlXvXvX",
"mXmXmXvXvXkXlXvXnX1XnXeXwXcX@Xy }.^.OX .K ( L L ' H H M C c ! tXA.#X0 sXvXlX6XbXcXzXmXvXvXvXkXkXlXvX",
"xXxXvXvXvXkXlXlXlXjXmXnXcXsXcX;X`.q.^.+XE J J J L B N V V x }.^.,.T.sXfXnXbX6X6XkXmXvXmXxXvXvXkXkXvX",
"xXxXzXvXvXkXhXlXhXnXhXzXbX$XfX=Xp.d.0.aXH.Z G H L M C Z r V.wX3.w.v #XcX<XbX0X9XkXvXxXxXxXvXkXkXvXvX",
"xXxXvXvXvXlXlXlXhXmXmXcXaXcXcX!.g.r.0.#XtXJ.~ L K C A w U uX#Xe.w.3.=.fXvX1XbX>XkXvXxXxXxXvXcXkXvXvX",
"mXzXvXvXvXkXkXlXnXhXzXbXsX-X#Xq.s.4.(.v.j..XW J G C C e U.j.Z.(.1.p.=.R.cXvX4XlXpXvXvXxXxXvXcXpXvXvX",
"cXcXcXcXcXcXcXkX6XnXxXzX*X=Xg.9.8.q.=X5 @  XJ.W F D N W XX# 5 %X9.8.q.2.dXaXpXcXfXpXvXjXxXyXzXcXcXvX",
"zXcXcXzXzXzXpXkXbX1XnXwXdX`.8.r.9._.;.. : f oXQ D C x .Xd # % :._.7.9.p.).dXdXfXfXfXvXlXxXxXcXcXcXvX",
"jXyXxXxXxXxXvXvXvX8XbXdX%Xa.8.i.W.!.3 1 * -.xXK.E c ! xXl O p 2 (.Q.1.a.W.;XcXzXvXhXvXlXmXzXcXcXvXvX",
"jXxXyXxXxXxXvXvXjXlXiXfX!.2.7.1.%Xh + $ 2 *XR.oXU x *XR.:X4 7 7 j =X3.3.T.~.sXyXxXjXvXvXzXcXzXcXvXvX",
"vXkXvXzXmXzXzXvXlX1XnXcX:X#X(.&XE.* 1 * v.).S.U.Y.H.&X2._.c.  p > A.=X/.&X$XbXxXxXjXjXxXmXzXcXcXcXvX",
"pXpXpXcXzXmXmXvXlXmXnXqXcXaXdXdXu   t g aXZ.w.F.tXtXW.9.e.dXt & t 0 cXcXfXzXzXhXxXxXmXmXxXvXcXpXvXvX",
"pXpXkXcXzXxXxXzX>XnXhXiXbXwXfXc.+ 0 a m.nX^.6.Q.H.K.s.s.W.fX'.o g 2 c.xXuXxXxXbXcXpXvXxXjXxXcXpXvXvX",
"pXkXvXvXnXxXxXxXnXhXnXcXgXbX@X; + t z nXyXfXu.t.F.S.u.i.-XfXcXg   p = <XnXrXxXhXfXfXvXxXxXmXcXzXvXvX",
"jXjXjXxXxXxXxXxXhXmXpX3XcXcX'.-.z.M.<XxXtXcX_.7.f.u.6.&XzXuXmXgXh.b.b.[.jXmXhXvXvXcXcXcXvXvXjXlXjXvX",
"jXjXjXxXxXxXxXmXhXnXbXkXpXpXlXmXnXzXxXyXhXcX%XQ.y.y.Q.aXxXyXzXzXbXbX0X7XbXlXvXvXzXvXcXcXcXvXjXjXmXvX",
"vXvXkXcXxXvXxXjXmXhXhXvXbXjXjXjXzXxXjX7XcXpX;X&Xt.t.*XxXvXvXxXhX>X6X4X2XpX3XcXnXmXxXjXhXcXvXjXjXhXvX",
"vXvXcXpXfXcXvXlXjXxXjXlXlXjX7XrXhXvX0X0X5X4X3XdXQ.(.cXxXkX3XnX7XbXbXnXcXpXpXgXpXxXjXxXxXkXvXjXxXvXvX",
"jXxXvXpXpXkXkXjXrXxXnXvXhXvXbXnXnXkX5X5X5X8XzXsX*XfXzXeXpXpXlX6XlXhXvXvXiXpXcXcXjXjXjXxXcXkXvXvXvXvX",
"xXxXzXpXpXpXkXvXxXhXzXbXbXcXhX,XsX,X8X9X5XkXmXsXxXvXzXhXvXmX4XbXmXhXxXjXvXmXcXcXjXjXxXjXkXcXvXvXvXvX",
"yXxXcXcXpXpXvXjXjXxXzXzXcXgXvXbXbXzXnXbX2XhXcXcX7X7XjXhXxXnXiXcXfXzXxXxXxXnXhXvXjXjXvXvXcXpXvXmXvXvX",
"yXnXzXpXpXpXkXjXjXxXmXcXcXcXcXsXzXxXzXxXbXzXcXcXjX7XjXmXxXxXbXfXcXzXxXyXxXxXhXnXjXxXvXvXpXcXxXxXxXvX",
"xXxXvXvXkXkXvXvXvXvXvXvXvXvXvXvXvXvXvXvXzXzXvXcXvXlXvXvXlXxXvXvXcXzXvXnXxXvXvXvXvXhXvXvXvXvXvXvXvXvX",
"vXxXvXvXvXvXvXvXvXvXvXvXvXvXvXvXvXvXvXvXvXvXvXvXvXvXvXvXvXvXvXvXvXcXvXvXxXvXvXvXvXvXvXvXvXvXvXvXvXvX"
};
