/* XPM */
static char *_c9f58a20ac04106e2cd33a2daa3ca971bL0ffbiliBD6Zd5[] = {
/* columns rows colors chars-per-pixel */
"50 50 128 2 ",
"   c #244E00",
".  c #294F00",
"X  c #265000",
"o  c #2D5501",
"O  c #2E5903",
"+  c #2E5509",
"@  c #315702",
"#  c #345C02",
"$  c #395E03",
"%  c #31570B",
"&  c #345C0B",
"*  c #385E0C",
"=  c #2E5610",
"-  c #355C11",
";  c #395F11",
":  c #375F19",
">  c #395E18",
",  c #366104",
"<  c #3B6303",
"1  c #3E6903",
"2  c #36610A",
"3  c #3B640B",
"4  c #3D690D",
"5  c #3C6412",
"6  c #3F6912",
"7  c #3A621B",
"8  c #416603",
"9  c #446B02",
"0  c #486E02",
"q  c #41650C",
"w  c #426A0C",
"e  c #496D09",
"r  c #467004",
"t  c #4B7303",
"y  c #4B730B",
"u  c #4F790B",
"i  c #507605",
"p  c #537B04",
"a  c #51760B",
"s  c #547C0C",
"d  c #587E0C",
"f  c #426613",
"g  c #436B12",
"h  c #496E13",
"j  c #426719",
"k  c #446C19",
"l  c #4D6F18",
"z  c #467115",
"x  c #4C7312",
"c  c #4A701D",
"v  c #517512",
"b  c #557C13",
"n  c #597E13",
"m  c #547C19",
"M  c #597D19",
"N  c #5B8304",
"B  c #5F8804",
"V  c #578009",
"C  c #5B830C",
"Z  c #5E880C",
"A  c #5C8414",
"S  c #5C8318",
"D  c #618700",
"F  c #658C05",
"G  c #6B8F05",
"H  c #638709",
"J  c #648C0B",
"K  c #698D0C",
"L  c #679006",
"P  c #6C9405",
"I  c #6F9904",
"U  c #66910C",
"Y  c #6C940C",
"T  c #6F990C",
"R  c #719703",
"E  c #749B05",
"W  c #7A9F06",
"Q  c #71960C",
"!  c #739B0C",
"~  c #799E0C",
"^  c #608511",
"/  c #638B13",
"(  c #688F14",
")  c #60871A",
"_  c #648B1A",
"`  c #688F18",
"'  c #679012",
"]  c #6C9413",
"[  c #6F9914",
"{  c #66901C",
"}  c #6C941B",
"|  c #6F9819",
" . c #719612",
".. c #739B13",
"X. c #7A9E14",
"o. c #71971A",
"O. c #739B1B",
"+. c #7A9E1A",
"@. c #77A004",
"#. c #7AA206",
"$. c #76A10E",
"%. c #7BA20D",
"&. c #76A113",
"*. c #7AA214",
"=. c #7EAA17",
"-. c #76A019",
";. c #7BA31B",
":. c #7EA81E",
">. c #668D20",
",. c #688F22",
"<. c #6C9422",
"1. c #6F9921",
"2. c #709722",
"3. c #749C23",
"4. c #789E20",
"5. c #769E2C",
"6. c #77A125",
"7. c #7AA323",
"8. c #7EA924",
"9. c #7CA32A",
"0. c #81A514",
"q. c #81A912",
"w. c #83A51A",
"e. c #83AA1D",
"r. c #8CB31A",
"t. c #80A521",
"y. c #83AB21",
"u. c #87AF2B",
/* pixels */
"E E ! ..X.+...Q Y T N Z A 1 2 5 2 2 # 2 4 3 3 w < <.6.U &.e.%.E Q ~ W R  .d $ f f f & % ; 5 $ $ * 3 ",
"$.&.! P Y  . .Q K U ] 6.A , , O & & O , 3 , $ 3 1 S O.U Q &.! E ~  .~ Q  .^ @ & f * * > 5 3 * 3 # , ",
"&.&.X.Q K K K o.] ( ` 1.u o 2 2 + 2 6 2 2 2 2 # < n ] P I ~ *.*.Q 0.0.X.+.^ # $ # # % 5 4 3 O , q w ",
"P X.X.+. .Y K  .K } ` <.b O , 2 5 5 4 2 O & 5 2 # n ] P I E &.*.X.0.0.X.X.H $ * $ # # * 3 2 , 2 4 w ",
"G Q  .0.0.0.~ R E ..] 1.S # # * 6 2 , O , 2 6 5 @ S  .! ~ ~ ~ X.G  .0.E X.J $ f $ * O O O , 2 5 3 # ",
" .Q Q X.0.~ ~ W ! ! ] O.a @ 4 5 5 2 2 2 2 2 - & q <.;.~ #.I G  .+.0.W ~ X.H $ $ @ 3 4 < , , 2 2 4 3 ",
"0.0.w.0.X.Q Q ~ P P ] 3.b # * 3 & 2 2 , O O = 2 @ _ Q E R R 0.w.Q Q ! ~ +.` $ q q k z w 1 4 4 4 f 4 ",
"0.0.w.w.+.X.X.X.T *.Y | S $ * 5 X 2 , 2 7 2 & 5 $ <.w.0.q.0.w.X.X.! ! X.+./ @ q l k f , , 1 4 4 6 4 ",
"R 0.0.0.+.T  .T *.P [ 6.a < # f 5 5 * # * 5 ; # $ ` ;.*.#.W ~ ~ #.E R %.;.J 8 # 5 5 * # O , 2 & # 3 ",
"0.E R Q o.;.w.;.P ....;.C < g g 5 f 3 # # * q 3 $ 2.X.E q.r.0.~ %.#.#.&.y.} $ h * 5 3 $ 1 6 j & 2 2 ",
"L P ....| o.O.[ L $.[ 8./ , w f j j f * * $ $ 8 8 ( ..*.I #.q.R W R *.+.U ( 9 < # * $ 4 w 4 3 * 2 2 ",
"Y ] } } } 1.| ] [ 8.;.| C 9 9 o 3 # $ $ 8 $ $ 1 $ ` 4.u.w.*.*.0.X...o.t.9.} 9 < 8 8 < < 9 < < 1 , # ",
"t r r 1 1 r y S m u a s A C A V d p p N Z Z d s i d i e a n _ ^ d d v M b b C C d } ` H F J C i V V ",
"# o O , , , # 3 # # # # b 9.6.-.*.;.;.+.o.;.+.] 2.9 $ q $ q e $ $ 8 q $ . 0 9.o...:.7.7.e.e...( } { ",
"+ & 6 2 O , < 3 k 4 3 < V 1.' [ Q ....Y T o. . .} 9 $ h l e 8 e e q * # 8 t ] T ! P P Q ..Q  .o.] ] ",
"7 5 6 & , 4 4 , , 4 3 < u } L L .. .Q  ...+... . .9 $ h $ $ $ e 8 @ q q < 0 o.P I E Q ..Q P  . .| [ ",
"2 6 2 1 6 2 3 , 4 1 < , s +.X.X.*.X.! ~ X.&.%.&.;.p e q 8 g w w < w < < w y ] ..P $.&.%.X.! ! ..] [ ",
"4 2 < 4 3 3 g 3 , , 4 # p O. .Q X.X.&.*.X.Q E E &.p v m z 8 , O w w 1 4 g x } P T X.! ! *.X.! L [ ] ",
"4 2 # , * + * & + & 5 # t o. .Q K ] ..+.O. ...;.:.p 8 8 , # < 4 3 # < 3 q h 3.] X.....X.+.+. . .T ] ",
"2 4 O # 3 & % % - - * # r o. . .K H K Y ] ] ] +.| r # 3 4 < 4 6 3 3 q e # e 2.Q T Q ......o.o.2.X.X.",
"7 O , 4 5 ; ; % 7 = = O y o..... . ... .| o.o.o.3.0 @ * $ # 5 5 f f w 3 # 1 ] Y o.Q Y Y [ ] ' ] &.%.",
"6 2 O 2 # % % + 7 = & , b O...&.Q  .Q Q T ] ] ] 2.0 $ q * % % % 3 3 * $ $ y 1.o.T Y L Y [ +.O.-.! ~ ",
"6 4 , O * * @ * * * 3 1 C 3...! ~ ! $.$.] Y U U 3.a e w $ * * 5 f q 8 8 < a 3.o.O...-.$...[ Y &.=.*.",
"O o , 4 q h q 3 # < 1 < p o.] [ *.X...&...] U } o.0 9 8 $ < < 3 8 8 8 8 $ 0 5.{ ' ] [ [ [ ..Y [ ....",
"# , < < < 1 , , 1 1 9 t N 3.O.o.o.o.6.4.O.7.' } 5.t 1 1 9 < < r r 9 1 8 9 0 >.<.<.} | | ' U O.7.O.` ",
"{ ' <.>._ { _ Z } ] o.o.Z 9 9 8 9 9 0 0 9 r 9 9 9 ( 6.-.3.| 3.[ o.| } 3.{ A t 8 y 1 < 1 1 9 9 1 e e ",
";.-.6.6.6.-.| [ ..X.;.t./ # 8 3 $ 3 $ 4 1 < 1 8 # { 7.....[ ;.&.:.-.' O.} _ 3 # 3 # # < 1 < , < < < ",
"....-.[ | [ L Y &.X.Q 4.A o 3 @ * * * q 3 # $ < $ / o.T &.[ X.! *.Q B ' ] <.3 * * & * 6 6 4 3 3 3 3 ",
"&.&.[ U [ T L T Q ! Q 4.V , 5 2 3 2 5 g 4 4 3 3 # S 6.X.[ ....P ! T U U [ / # % ; & - ; 5 & - 5 2 2 ",
"T ..[ U $.$.L -.Q Q Q 4.m 4 5 4 5 2 6 5 4 4 3 3 8 >.t...L  .Q Q T P U F ] C @ & > 5 ; & 2 & - 5 2 # ",
"] ] } | [ -.....Y K F } b # , 2 3 3 3 4 w 1 f 3 $ )  .! Q Q Q Q Q X.o.[ -.Z # 3 3 @ o o + 2 + % & % ",
"K H ' / B L U L  .Q G +.) O , 4 , 3 2 3 w < f $ # { ( Q Q X.X.X.X.*.o.o...C # & & * * * 2 , O 2 2 2 ",
"P L o.O.F Y +.X.Q Q P ..A < < , , 3 , 3 1 , @ * # S ] T Q Q ! ~ Q Q o.+.[ C # % + & & O 2 2 , 2 3 * ",
"! Q  .+.+.+.+.+.Q ~ $.O.C e w # 3 2 3 & 4 4 $ # # ) } Y ] Q ! Q X.Q K ( -.J o 3 + & * @ 2 3 4 4 4 3 ",
"E ! Y Y P ! Q *.e.*.P +.d 3 4 3 3 3 3 # 1 3 3 3 # ,.O...X.Q ~ ~ ! E Q ..;.' # 2 & * ; ; 5 6 2 # 4 3 ",
"Y *.o.Q E ! P %.X.~ Q 7.n 8 3 @ f * o 3 , , # < < <.o.] ....*.! E E +...-.' < < 4 * & + & 2 # # , , ",
"{ | { ] T =.$.=.*.&.*.+.A 8 e q 3 & o @ O # o # $ A o.;.:.;.;.*.*.=.O.O.8.Z o , # # # o @ $ < < < , ",
"m x A u V U [ ....U U K / d i 8 v x v y t r y 9 1 p H ( ] J ( K F ' ` ^ / i 1 r 1 9 y z w t p y r r ",
"X X O o < < 1 e < $ $ $ d 9.+.O.| O.6.[ ] | 3.<.<.0 # # < w < $ # # 3 $ # t 6.O...O.6.3.<.2.O.-.Y [ ",
"5 5 5 X 2 6 4 6 f $ 8 8 ^ O.L R ! ......U [ o.3.5.9 $ 8 q f * # & ; % % # 9 | &.$.$.-.O.| O.[ F $.&.",
"4 4 4 4 2 & 2 2 j 5 h < d ;.P ! Q ..+...] T o.] 3.r $ $ 4 q 4 4 # 3 3 3 O 1 | &.T &.-.1.} ] o.&.Q ..",
"2 2 , , 2 2 - 5 ; > q @ 0 O.T P  .o.o.T U U ] ] ] 9 1 e 3 4 3 2 4 4 3 3 , u -.T $.&.-.-.| ] T T ....",
"= 2 , & 4 2 6 6 * ; * @ e ` } o.K Y P Q ......Y 9.9 3 3 # 3 6 & 3 * & * # x 6.T I T T [ ..o...P X. .",
", = O O o o O , * * @ @ t / ( T Y T P P D G L O.O.9 8 f # @ O % & & @ @ o z O...$.$.T L Y ..! T  . .",
"2 2 , O O X o O 3 3 # O t | ..Y P P ! ~ T X.P U } 9 3 f 5 * + - 2 3 , 4 & g 2...] T T U T ..$.$.Q Q ",
"& 3 1 4 3 , 4 4 4 3 , O p O.-.&.X.! ! %.*.w.*.:.8.e @ & 5 * O 2 3 2 , 3 # h 2.] Y U ] T ....&.&.Q X.",
"- * , , 2 2 , 4 4 # # # t ' J | K Q e.e.+. .Q ;.o.8 $ * # O o O * & # , @ e } T ..Q ....o.] o...+.X.",
"5 5 # 2 2 2 4 6 6 4 k $ u <.' ] +.P +.! o.T P Q  .8 @ * 3 g 6 # o # $ 4 $ w } T T Y Y P ..] o.;.*...",
"g 4 3 4 * , 4 g 4 2 5 3 i -...Y ..+.;.+.Q Q ~ *.O.9 # $ 3 , 3 2 3 4 2 * 3 y o.X.Q ] T U U ] Y +.+.&.",
"3 4 3 q # 3 3 3 , , & # t 7.+...Y T Q Q Q ~ %.*.O.1 # 3 3 , 3 3 w w 5 2 , e ] T  .] U Y U ] Y ..Q R "
};
